<?xml version="1.0" standalone="no"?>
<!DOCTYPE svg PUBLIC "-//W3C//DTD SVG 20010904//EN"
 "http://www.w3.org/TR/2001/REC-SVG-20010904/DTD/svg10.dtd">
<svg version="1.0" xmlns="http://www.w3.org/2000/svg"
 width="1080.000000pt" height="1080.000000pt" viewBox="0 0 1080.000000 1080.000000"
 preserveAspectRatio="xMidYMid meet">
<metadata>
Created by potrace 1.11, written by Peter Selinger 2001-2013
</metadata>
<g transform="translate(0.000000,1080.000000) scale(0.100000,-0.100000)"
fill="#000000" stroke="none">
<path d="M5995 10193 c-138 -25 -169 -35 -280 -89 -113 -55 -194 -122 -290
-239 -166 -204 -219 -524 -130 -786 90 -263 288 -455 560 -541 92 -30 111 -32
240 -32 116 -1 154 3 220 22 210 60 380 182 490 352 58 88 108 201 120 269 2
14 9 50 15 79 15 79 5 244 -20 337 -80 298 -315 532 -610 606 -78 20 -259 33
-315 22z"/>
<path d="M7998 9685 c-1 -1 -32 -6 -68 -9 -473 -47 -816 -494 -744 -971 63
-416 420 -720 844 -719 100 0 166 12 294 51 26 8 170 83 176 92 3 4 21 18 40
31 61 42 157 144 197 210 64 106 104 205 124 311 11 62 15 271 5 288 -3 4 -8
23 -11 42 -17 104 -92 261 -169 353 -66 79 -78 91 -154 148 -126 96 -272 152
-427 163 -44 4 -85 8 -92 10 -6 2 -13 2 -15 0z"/>
<path d="M9380 8273 c-248 -21 -467 -138 -622 -333 -66 -83 -138 -239 -153
-330 -3 -19 -8 -48 -12 -65 -11 -54 -10 -188 3 -260 61 -350 326 -622 675
-694 69 -14 211 -20 264 -10 22 4 54 9 70 12 17 3 58 14 92 25 400 132 640
529 573 947 -41 257 -214 496 -444 612 -133 67 -317 106 -446 96z"/>
<path d="M5997 7904 c-1 -1 -44 -5 -96 -8 -77 -5 -234 -29 -326 -50 -11 -2
-41 -9 -67 -15 -57 -13 -309 -96 -335 -110 -10 -5 -62 -30 -116 -55 -365 -170
-743 -503 -975 -860 -153 -235 -298 -587 -337 -817 -3 -19 -8 -41 -10 -49 -2
-8 -7 -39 -10 -69 -4 -30 -9 -63 -11 -75 -26 -124 -22 -467 7 -646 6 -36 13
-78 16 -95 2 -16 13 -68 25 -115 162 -686 632 -1276 1261 -1586 62 -31 123
-61 137 -69 39 -20 265 -93 370 -119 107 -27 194 -42 290 -51 36 -4 81 -8 100
-11 45 -5 312 -5 365 0 36 4 74 8 175 21 19 2 69 12 110 20 41 9 89 19 105 22
68 11 330 104 437 156 705 335 1201 972 1347 1728 30 155 36 234 36 449 0 211
-7 298 -36 445 -5 28 -11 60 -13 72 -39 205 -156 497 -286 716 -175 294 -458
591 -735 771 -66 43 -259 152 -315 178 -128 60 -370 140 -490 163 -14 3 -45 9
-70 15 -44 9 -116 21 -155 26 -76 9 -391 24 -398 18z"/>
<path d="M2317 7894 c-1 -1 -49 -4 -107 -8 -58 -4 -112 -8 -120 -9 -8 -2 -42
-7 -75 -11 -292 -38 -692 -194 -963 -374 -324 -216 -606 -541 -794 -912 -78
-153 -79 -157 -133 -315 -51 -150 -94 -343 -112 -500 -10 -88 -10 -426 0 -522
53 -498 277 -998 612 -1362 133 -144 3087 -3089 3134 -3124 57 -42 180 -106
241 -126 192 -61 438 -46 615 38 138 65 166 91 1047 970 477 476 868 869 868
873 0 4 -6 6 -13 3 -44 -14 -257 -28 -427 -28 -202 0 -351 14 -595 58 -11 1
-67 15 -125 30 -429 109 -819 304 -1160 579 -130 105 -296 265 -385 371 -27
33 -55 66 -62 72 -35 38 -160 213 -222 312 -255 409 -417 902 -448 1362 -13
189 -6 500 12 611 6 34 34 199 40 233 20 109 102 391 140 480 159 369 281 577
489 832 l26 31 -27 20 c-71 50 -305 182 -333 187 -3 1 -32 14 -65 29 -88 40
-313 113 -422 137 -122 26 -129 28 -183 35 -25 3 -54 8 -65 10 -44 8 -380 24
-388 18z"/>
<path d="M9859 6346 c-2 -3 -27 -8 -54 -11 -113 -15 -281 -88 -375 -163 -167
-134 -286 -333 -318 -532 -9 -58 -9 -222 0 -280 10 -69 47 -179 81 -245 143
-276 411 -447 722 -462 103 -5 138 -1 275 32 76 17 213 90 295 156 66 53 87
74 131 134 16 22 32 42 35 45 21 17 92 169 114 245 33 110 41 290 18 399 -54
264 -235 495 -476 605 -103 47 -209 72 -333 77 -61 2 -112 2 -115 0z"/>
</g>
</svg>
